<?xml version="1.0" encoding="UTF-8"?>
<svg width="147px" height="147px" viewBox="0 0 147 147" version="1.1" xmlns="http://www.w3.org/2000/svg" xmlns:xlink="http://www.w3.org/1999/xlink">
    <!-- Generator: Sketch 64 (93537) - https://sketch.com -->
    <title>virus</title>
    <desc>Created with Sketch.</desc>
    <g id="Page-1" stroke="none" stroke-width="1" fill="none" fill-rule="evenodd" opacity="0.461356027">
        <g id="Desktop-HD" transform="translate(-1088.000000, -212.000000)" fill-rule="nonzero">
            <g id="virus" transform="translate(1088.000000, 212.000000)">
                <polygon id="Path" fill="#DE3052" points="110 69 126 69 126 78 110 78"></polygon>
                <circle id="Oval" fill="#F94D66" cx="135.5" cy="73.5" r="9.5"></circle>
                <polygon id="Path" fill="#DE3052" transform="translate(29.000000, 73.500000) rotate(-180.000000) translate(-29.000000, -73.500000) " points="21 69 37 69 37 78 21 78"></polygon>
                <circle id="Oval" fill="#F94D66" cx="11.5" cy="73.5" r="9.5"></circle>
                <polygon id="Path" fill="#DE3052" transform="translate(74.000000, 118.500000) rotate(90.000000) translate(-74.000000, -118.500000) " points="66 114 82 114 82 123 66 123"></polygon>
                <circle id="Oval" fill="#F94D66" cx="73.5" cy="135.5" r="9.5"></circle>
                <polygon id="Path" fill="#DE3052" transform="translate(74.000000, 28.500000) rotate(-90.000000) translate(-74.000000, -28.500000) " points="66 24 82 24 82 33 66 33"></polygon>
                <circle id="Oval" fill="#F94D66" cx="73.5" cy="11.5" r="9.5"></circle>
                <circle id="Oval" fill="#F94D66" cx="74" cy="74" r="37"></circle>
                <path d="M74,37 C73.6062969,37 73.2146172,37.0083828 72.8238047,37.0205234 C91.4550391,37.6203281 106.375,52.9105781 106.375,71.6875 C106.375,90.8448281 90.8448281,106.375 71.6875,106.375 C52.9105781,106.375 37.6203281,91.4550391 37.0205234,72.8238047 C37.0083828,73.2146172 37,73.6062969 37,74 C37,94.4344062 53.5655937,111 74,111 C94.4344062,111 111,94.4344062 111,74 C111,53.5655937 94.4344062,37 74,37 Z" id="Path" fill="#DE3052"></path>
                <g id="Group" transform="translate(20.000000, 20.000000)" fill="#F94D66">
                    <polygon id="Path" transform="translate(25.013599, 82.217777) rotate(135.000000) translate(-25.013599, -82.217777) " points="12.300658 77.5948895 37.7265392 77.5948895 37.7265392 86.8406645 12.300658 86.8406645"></polygon>
                    <circle id="Oval" cx="9.46823658" cy="97.7411568" r="9.24717139"></circle>
                    <polygon id="Path" transform="translate(82.195795, 25.003794) rotate(-45.000000) translate(-82.195795, -25.003794) " points="69.4828541 20.3809062 94.9087353 20.3809062 94.9087353 29.6266812 69.4828541 29.6266812"></polygon>
                    <circle id="Oval" cx="97.7411568" cy="9.46823658" r="9.24717139"></circle>
                    <polygon id="Path" transform="translate(24.997705, 25.007510) rotate(-135.000000) translate(-24.997705, -25.007510) " points="12.2847645 20.3846225 37.7106456 20.3846225 37.7106456 29.6303974 12.2847645 29.6303974"></polygon>
                    <circle id="Oval" cx="9.46823658" cy="9.46823658" r="9.24717139"></circle>
                    <polygon id="Path" transform="translate(82.211688, 82.189706) rotate(45.000000) translate(-82.211688, -82.189706) " points="69.4987477 77.5668186 94.9246289 77.5668186 94.9246289 86.8125935 69.4987477 86.8125935"></polygon>
                    <circle id="Oval" cx="97.7411568" cy="97.7411568" r="9.24717139"></circle>
                </g>
                <circle id="Oval" fill="#FBB9D7" cx="64.5" cy="82.5" r="9.5"></circle>
                <path d="M64.2,73 C63.44045,73 62.703175,73.1039062 62,73.29925 C65.79555,74.35375 68.6,78.0732969 68.6,82.5 C68.6,86.9267031 65.79555,90.64625 62,91.70075 C62.703175,91.8960938 63.44045,92 64.2,92 C69.060075,92 73,87.7466719 73,82.5 C73,77.2533281 69.060075,73 64.2,73 Z" id="Path" fill="#ED9C87"></path>
                <circle id="Oval" fill="#FBB9D7" cx="87" cy="69" r="7"></circle>
                <path d="M87.25,62 C86.4608125,62 85.7039688,62.14175 85,62.399875 C87.62125,63.3609167 89.5,65.952375 89.5,69 C89.5,72.047625 87.62125,74.6390833 85,75.600125 C85.7039688,75.85825 86.4608125,76 87.25,76 C90.9779688,76 94,72.8660417 94,69 C94,65.1339583 90.9779688,62 87.25,62 Z" id="Path" fill="#ED9C87"></path>
                <circle id="Oval" fill="#FBB9D7" cx="69.5" cy="57.5" r="4.5"></circle>
                <path d="M69.3333333,53 C68.48225,53 67.686875,53.2233125 67,53.6069375 C68.3935833,54.3854375 69.3333333,55.8352812 69.3333333,57.5 C69.3333333,59.1647188 68.3935833,60.6145625 67,61.3930625 C67.686875,61.7766875 68.48225,62 69.3333333,62 C71.9107917,62 74,59.9854062 74,57.5 C74,55.0145938 71.9107917,53 69.3333333,53 Z" id="Path" fill="#ED9C87"></path>
                <polygon id="Path" fill="#FFFFFF" points="51 65 55 65 55 69 51 69"></polygon>
                <g id="Group">
                    <g fill="#000000">
                        <path d="M135.636986,62.1369863 C131.901863,62.1369863 128.582712,63.9490274 126.510041,66.739726 L111.883397,66.739726 C110.894096,61.1453836 108.691973,55.7990137 105.426329,51.134137 L115.764082,40.7963836 C116.318712,40.8783699 116.877945,40.9200822 117.437466,40.9200822 C120.34726,40.9200822 123.257055,39.8125479 125.472411,37.5971918 C127.618726,35.4511644 128.800479,32.5974658 128.800479,29.5622466 C128.800479,26.5270274 127.618726,23.6736164 125.472411,21.5273014 C123.326384,19.3809863 120.472973,18.1992329 117.437466,18.1992329 C114.402247,18.1992329 111.548836,19.3809863 109.402521,21.5273014 C106.761411,24.168411 105.695589,27.7968082 106.203616,31.2356301 L88.2474658,49.1917808 L91.2987945,52.2428219 L107.862904,35.6784247 C108.297575,36.3584795 108.809055,37.0031507 109.402521,37.5969041 C109.996274,38.1906575 110.640945,38.7018493 111.321,39.1365205 L94.7566027,55.7009178 L97.8076438,58.7519589 L102.325521,54.2340822 C106.154712,59.9305479 108.164384,66.5326027 108.164384,73.5 C108.164384,80.4673973 106.154712,87.0694521 102.325808,92.7653425 L97.8079315,88.2474658 L94.7568904,91.2987945 L111.321288,107.863192 C110.641233,108.297863 109.996562,108.809055 109.402808,109.402808 C108.809055,109.996562 108.297863,110.641233 107.863192,111.321288 L91.2990822,94.7568904 L88.2477534,97.8079315 L92.7656301,102.325808 C87.0691644,106.154425 80.4665342,108.164384 73.5,108.164384 C66.5334658,108.164384 59.9308356,106.154712 54.2346575,102.325808 L58.7525342,97.8079315 L55.7012055,94.7568904 L39.1370959,111.321288 C38.7024247,110.641233 38.1912329,109.996562 37.5974795,109.402808 C33.1670548,104.972096 25.9580137,104.972384 21.5278767,109.402808 C19.3815616,111.548836 18.1998082,114.402534 18.1998082,117.437753 C18.1998082,120.472973 19.3815616,123.326384 21.5278767,125.472699 C23.6739041,127.619014 26.5273151,128.800767 29.5628219,128.800767 C32.5980411,128.800767 35.4514521,127.619014 37.5977671,125.472699 C40.2388767,122.831589 41.3046986,119.203192 40.7966712,115.76437 L51.1344247,105.426616 C55.7990137,108.69226 61.1459589,110.894384 66.7400137,111.883685 L66.7400137,126.510616 C63.9493151,128.583 62.137274,131.902438 62.137274,135.637562 C62.137274,141.903041 67.2348082,147.000575 73.5002877,147.000575 C79.7657671,147.000575 84.8633014,141.903041 84.8633014,135.637562 C84.8633014,131.902438 83.0512603,128.583288 80.2605616,126.510616 L80.2605616,111.883685 C85.8549041,110.894384 91.2018493,108.69226 95.8661507,105.426616 L106.203904,115.76437 C105.696164,119.203192 106.761699,122.831589 109.402808,125.472699 C111.548836,127.619014 114.402534,128.800767 117.437753,128.800767 C120.472973,128.800767 123.326384,127.619014 125.472699,125.472699 C127.619014,123.326671 128.800767,120.47326 128.800767,117.437753 C128.800767,114.402534 127.619014,111.549123 125.472699,109.402808 C122.831589,106.761411 119.203192,105.695877 115.76437,106.203904 L105.426616,95.8661507 C108.69226,91.2015616 110.894384,85.8549041 111.883685,80.2605616 L126.510329,80.2605616 C128.582712,83.0512603 131.902151,84.8633014 135.637274,84.8633014 C141.902753,84.8633014 147.000288,79.7657671 147.000288,73.5002877 C147.000288,67.2348082 141.902466,62.1369863 135.636986,62.1369863 Z M112.453849,24.5789178 C113.784904,23.247863 115.554945,22.514589 117.437466,22.514589 C119.319986,22.514589 121.090027,23.2475753 122.421082,24.5789178 C123.752137,25.9099726 124.485411,27.6800137 124.485411,29.5625342 C124.485411,31.4450548 123.752425,33.2150959 122.421082,34.5461507 C119.672959,37.2939863 115.201685,37.2939863 112.453849,34.5461507 C109.705726,31.7983151 109.705726,27.3267534 112.453849,24.5789178 Z M34.5461507,122.421082 C33.2148082,123.752137 31.4450548,124.485411 29.5625342,124.485411 C27.6800137,124.485411 25.9099726,123.752425 24.5789178,122.421082 C23.247863,121.08974 22.514589,119.319986 22.514589,117.437466 C22.514589,115.554945 23.2475753,113.784904 24.5789178,112.453849 C25.9531233,111.079644 27.7573973,110.392973 29.5625342,110.392973 C31.3670959,110.392973 33.1722329,111.080219 34.5461507,112.453849 C37.294274,115.201685 37.294274,119.673247 34.5461507,122.421082 Z M73.5,142.684932 C69.6138493,142.684932 66.4520548,139.523137 66.4520548,135.636986 C66.4520548,131.750836 69.6138493,128.589041 73.5,128.589041 C77.3861507,128.589041 80.5479452,131.750836 80.5479452,135.636986 C80.5479452,139.523137 77.3861507,142.684932 73.5,142.684932 Z M75.9452055,124.541795 C75.1569863,124.368329 74.3394247,124.273973 73.5,124.273973 C72.6605753,124.273973 71.8430137,124.368329 71.0547945,124.541795 L71.0547945,112.401493 C71.8674658,112.452986 72.6830137,112.479452 73.5,112.479452 C74.3169863,112.479452 75.1325342,112.453274 75.9452055,112.401493 L75.9452055,124.541795 Z M122.421082,112.453849 C123.752137,113.784904 124.485411,115.554945 124.485411,117.437466 C124.485411,119.319986 123.752425,121.090027 122.421082,122.421082 C121.08974,123.752137 119.319986,124.485411 117.437466,124.485411 C115.554945,124.485411 113.784904,123.752425 112.453849,122.421082 C109.706014,119.673247 109.706014,115.201685 112.453849,112.453849 C113.828055,111.079644 115.632616,110.392973 117.437466,110.392973 C119.242027,110.392973 121.047164,111.079932 122.421082,112.453849 Z M112.401493,75.9452055 C112.452986,75.1325342 112.479452,74.3169863 112.479452,73.5 C112.479452,72.6830137 112.452986,71.8674658 112.401493,71.0547945 L124.541795,71.0547945 C124.368041,71.8430137 124.273973,72.6605753 124.273973,73.5 C124.273973,74.3394247 124.368329,75.1569863 124.541795,75.9452055 L112.401493,75.9452055 Z M135.636986,80.5479452 C131.750836,80.5479452 128.589041,77.3861507 128.589041,73.5 C128.589041,69.6138493 131.750836,66.4520548 135.636986,66.4520548 C139.523137,66.4520548 142.684932,69.6138493 142.684932,73.5 C142.684932,77.3861507 139.523137,80.5479452 135.636986,80.5479452 Z" id="Shape"></path>
                        <path d="M20.4899589,80.260274 L35.1166027,80.260274 C36.0966986,85.803411 38.2689041,91.1026027 41.4856438,95.7369863 L35.1744247,101.870712 L38.1817397,104.965192 L52.2212466,91.3203699 L49.2139315,88.2258904 L44.6238493,92.6868082 C40.8288904,87.0087534 38.8356164,80.4357534 38.8356164,73.5 C38.8356164,66.5334658 40.8452877,59.9308356 44.6741918,54.2346575 L49.1920685,58.7525342 L52.2431096,55.7014932 L35.6787123,39.1370959 C36.3587671,38.7024247 37.0034384,38.1909452 37.5971918,37.5974795 C38.1909452,37.003726 38.702137,36.3590548 39.1368082,35.679 L55.7009178,52.2433973 L58.7522466,49.1923562 L54.2346575,44.6744795 C59.9305479,40.8455753 66.5326027,38.8359041 73.5,38.8359041 C79.0586712,38.8359041 84.3670685,40.1111507 89.2779041,42.6259726 L91.245,38.785274 C87.7477808,36.9942329 84.0719178,35.763863 80.260274,35.1004932 L80.260274,20.4899589 C83.0509726,18.4175753 84.8630137,15.098137 84.8630137,11.3630137 C84.8630137,5.09753425 79.7654795,4.0880541e-15 73.5,4.0880541e-15 C67.2345205,4.0880541e-15 62.1369863,5.09753425 62.1369863,11.3630137 C62.1369863,15.098137 63.9490274,18.4172877 66.739726,20.4899589 L66.739726,35.1166027 C61.1453836,36.1059041 55.7990137,38.3080274 51.134137,41.5739589 L40.7963836,31.2362055 C41.3041233,27.7973836 40.238589,24.1689863 37.5974795,21.5278767 C35.4514521,19.3815616 32.5977534,18.1998082 29.5625342,18.1998082 C26.5273151,18.1998082 23.6739041,19.3815616 21.527589,21.5278767 C19.381274,23.6739041 18.1995205,26.5273151 18.1995205,29.5628219 C18.1995205,32.5980411 19.381274,35.4514521 21.527589,37.5977671 C23.7426575,39.8131233 26.6524521,40.9206575 29.5622466,40.9206575 C30.1217671,40.9206575 30.6812877,40.8786575 31.2359178,40.7969589 L41.5736712,51.1347123 C38.3080274,55.7990137 36.1059041,61.1459589 35.1166027,66.7403014 L20.4899589,66.7403014 C18.4175753,63.9496027 15.098137,62.1375616 11.3630137,62.1375616 C5.09753425,62.1369863 0,67.2345205 0,73.5 C0,79.7654795 5.09753425,84.8630137 11.3630137,84.8630137 C15.098137,84.8630137 18.4172877,83.0509726 20.4899589,80.260274 Z M73.5,4.31506849 C77.3861507,4.31506849 80.5479452,7.47686301 80.5479452,11.3630137 C80.5479452,15.2491644 77.3861507,18.4109589 73.5,18.4109589 C69.6138493,18.4109589 66.4520548,15.2491644 66.4520548,11.3630137 C66.4520548,7.47686301 69.6138493,4.31506849 73.5,4.31506849 Z M71.0547945,22.4582055 C71.8430137,22.6316712 72.6605753,22.7260274 73.5,22.7260274 C74.3394247,22.7260274 75.1569863,22.6316712 75.9452055,22.4582055 L75.9452055,34.5962055 C75.1351233,34.546726 74.3201507,34.5205479 73.5,34.5205479 C72.6830137,34.5205479 71.8674658,34.546726 71.0547945,34.5985068 L71.0547945,22.4582055 Z M24.5789178,34.5461507 C23.247863,33.2148082 22.514589,31.4450548 22.514589,29.5625342 C22.514589,27.6800137 23.2475753,25.9099726 24.5789178,24.5789178 C25.9099726,23.247863 27.6800137,22.514589 29.5625342,22.514589 C31.4450548,22.514589 33.2150959,23.2475753 34.5461507,24.5789178 C37.2939863,27.3267534 37.2939863,31.7983151 34.5461507,34.5461507 C31.7983151,37.294274 27.3270411,37.2939863 24.5789178,34.5461507 Z M34.5985068,71.0547945 C34.5470137,71.8674658 34.5205479,72.6830137 34.5205479,73.5 C34.5205479,74.3169863 34.546726,75.1325342 34.5985068,75.9452055 L22.4582055,75.9452055 C22.6316712,75.1569863 22.7260274,74.3394247 22.7260274,73.5 C22.7260274,72.6605753 22.6316712,71.8430137 22.4582055,71.0547945 L34.5985068,71.0547945 Z M11.3630137,80.5479452 C7.47686301,80.5479452 4.31506849,77.3861507 4.31506849,73.5 C4.31506849,69.6138493 7.47686301,66.4520548 11.3630137,66.4520548 C15.2491644,66.4520548 18.4109589,69.6138493 18.4109589,73.5 C18.4109589,77.3861507 15.2491644,80.5479452 11.3630137,80.5479452 Z" id="Shape"></path>
                        <path d="M64.2945205,71.3424658 C58.0290411,71.3424658 52.9315068,76.44 52.9315068,82.7054795 C52.9315068,88.9709589 58.0290411,94.0684932 64.2945205,94.0684932 C70.56,94.0684932 75.6575342,88.9709589 75.6575342,82.7054795 C75.6575342,76.44 70.56,71.3424658 64.2945205,71.3424658 Z M64.2945205,89.7534247 C60.4083699,89.7534247 57.2465753,86.5916301 57.2465753,82.7054795 C57.2465753,78.8193288 60.4083699,75.6575342 64.2945205,75.6575342 C68.1806712,75.6575342 71.3424658,78.8193288 71.3424658,82.7054795 C71.3424658,86.5916301 68.1806712,89.7534247 64.2945205,89.7534247 Z" id="Shape"></path>
                        <path d="M87.3082192,77.9589041 C92.3047808,77.9589041 96.369863,73.8938219 96.369863,68.8972603 C96.369863,63.9006986 92.3047808,59.8356164 87.3082192,59.8356164 C82.3116575,59.8356164 78.2465753,63.9006986 78.2465753,68.8972603 C78.2465753,73.8938219 82.3116575,77.9589041 87.3082192,77.9589041 Z M87.3082192,64.1506849 C89.9254521,64.1506849 92.0547945,66.2800274 92.0547945,68.8972603 C92.0547945,71.5144932 89.9254521,73.6438356 87.3082192,73.6438356 C84.6909863,73.6438356 82.5616438,71.5144932 82.5616438,68.8972603 C82.5616438,66.2800274 84.6909863,64.1506849 87.3082192,64.1506849 Z" id="Shape"></path>
                        <path d="M68.8972603,50.630137 C65.1696164,50.630137 62.1369863,53.6627671 62.1369863,57.390411 C62.1369863,61.1180548 65.1696164,64.1506849 68.8972603,64.1506849 C72.6249041,64.1506849 75.6575342,61.1180548 75.6575342,57.390411 C75.6575342,53.6627671 72.6249041,50.630137 68.8972603,50.630137 Z M68.8972603,59.8356164 C67.5489452,59.8356164 66.4520548,58.738726 66.4520548,57.390411 C66.4520548,56.0420959 67.5489452,54.9452055 68.8972603,54.9452055 C70.2455753,54.9452055 71.3424658,56.0420959 71.3424658,57.390411 C71.3424658,58.738726 70.2455753,59.8356164 68.8972603,59.8356164 Z" id="Shape"></path>
                        <polygon id="Path" points="45.8835616 69.0410959 50.4863014 69.0410959 50.4863014 73.3561644 45.8835616 73.3561644"></polygon>
                        <polygon id="Path" points="98.8150685 75.9452055 103.417808 75.9452055 103.417808 80.260274 98.8150685 80.260274"></polygon>
                    </g>
                    <polygon id="Path" fill="#FFFFFF" points="94.2123288 80.5479452 98.8150685 80.5479452 98.8150685 84.8630137 94.2123288 84.8630137"></polygon>
                </g>
            </g>
        </g>
    </g>
</svg>